<svg width="137" height="135" viewBox="0 0 137 135" fill="none" xmlns="http://www.w3.org/2000/svg">
<path d="M35.469 108.29L64.609 79.9061L55.563 70.6191L26.423 99.0031C21.391 103.904 14.803 106.694 7.83303 107.567C5.63603 107.842 3.51903 108.933 1.96903 110.847C-0.55897 113.969 -0.66397 118.514 1.71903 121.747C3.44603 124.09 6.00403 125.306 8.60103 125.411C8.63803 128.01 9.78603 130.599 12.083 132.387C15.253 134.854 19.799 134.868 22.986 132.423C24.94 130.924 26.086 128.837 26.419 126.648C27.476 119.704 30.438 113.192 35.469 108.29Z" fill="white"/>
<path d="M120.044 69.6484C97.654 91.4574 58.419 106.041 43.847 91.0814C29.275 76.1214 44.884 37.2824 67.274 15.4734C89.664 -6.33559 110.356 -2.8566 124.928 12.1034C139.5 27.0634 142.434 47.8394 120.044 69.6484Z" fill="#0EA5E9"/>
</svg>
